<svg xmlns="http://www.w3.org/2000/svg" width="1200" height="900" viewBox="0 0 1200 900">
  <path d="M600 0 C820 90 820 210 600 300 C380 390 380 510 600 600 C820 690 820 810 600 900" fill="none" stroke="#1f3f7a" stroke-opacity="0.05" stroke-width="2.5" stroke-dasharray="2 11" stroke-linecap="round"/>
  <circle cx="600" cy="300" r="9" fill="none" stroke="#ee200f" stroke-opacity="0.07" stroke-width="2.5"/>
  <circle cx="600" cy="300" r="3" fill="#ee200f" fill-opacity="0.07"/>
  <circle cx="600" cy="600" r="9" fill="none" stroke="#ee200f" stroke-opacity="0.07" stroke-width="2.5"/>
  <circle cx="600" cy="600" r="3" fill="#ee200f" fill-opacity="0.07"/>
  <g fill="#1f3f7a" fill-opacity="0.06">
    <g transform="translate(792 150) rotate(42)"><path d="M0 8 26 0 20 8 28 12 15 13 10 24 8 13Z"/></g>
    <g transform="translate(408 450) rotate(138)"><path d="M0 8 26 0 20 8 28 12 15 13 10 24 8 13Z"/></g>
    <g transform="translate(792 750) rotate(42)"><path d="M0 8 26 0 20 8 28 12 15 13 10 24 8 13Z"/></g>
  </g>
</svg>
