<svg xmlns="http://www.w3.org/2000/svg" width="1000" height="520" viewBox="0 0 1000 520"><g fill="#9fadc6"><circle cx="120" cy="75" r="2.5"/><circle cx="135" cy="75" r="2.5"/><circle cx="150" cy="75" r="2.5"/><circle cx="165" cy="75" r="2.5"/><circle cx="180" cy="75" r="2.5"/><circle cx="195" cy="75" r="2.5"/><circle cx="210" cy="75" r="2.5"/><circle cx="225" cy="75" r="2.5"/><circle cx="240" cy="75" r="2.5"/><circle cx="255" cy="75" r="2.5"/><circle cx="270" cy="75" r="2.5"/><circle cx="285" cy="75" r="2.5"/><circle cx="120" cy="90" r="2.5"/><circle cx="135" cy="90" r="2.5"/><circle cx="150" cy="90" r="2.5"/><circle cx="165" cy="90" r="2.5"/><circle cx="180" cy="90" r="2.5"/><circle cx="195" cy="90" r="2.5"/><circle cx="210" cy="90" r="2.5"/><circle cx="225" cy="90" r="2.5"/><circle cx="240" cy="90" r="2.5"/><circle cx="255" cy="90" r="2.5"/><circle cx="270" cy="90" r="2.5"/><circle cx="285" cy="90" r="2.5"/><circle cx="300" cy="90" r="2.5"/><circle cx="585" cy="90" r="2.5"/><circle cx="600" cy="90" r="2.5"/><circle cx="615" cy="90" r="2.5"/><circle cx="630" cy="90" r="2.5"/><circle cx="645" cy="90" r="2.5"/><circle cx="660" cy="90" r="2.5"/><circle cx="675" cy="90" r="2.5"/><circle cx="690" cy="90" r="2.5"/><circle cx="705" cy="90" r="2.5"/><circle cx="720" cy="90" r="2.5"/><circle cx="735" cy="90" r="2.5"/><circle cx="750" cy="90" r="2.5"/><circle cx="765" cy="90" r="2.5"/><circle cx="780" cy="90" r="2.5"/><circle cx="795" cy="90" r="2.5"/><circle cx="810" cy="90" r="2.5"/><circle cx="825" cy="90" r="2.5"/><circle cx="840" cy="90" r="2.5"/><circle cx="120" cy="105" r="2.5"/><circle cx="135" cy="105" r="2.5"/><circle cx="150" cy="105" r="2.5"/><circle cx="165" cy="105" r="2.5"/><circle cx="180" cy="105" r="2.5"/><circle cx="195" cy="105" r="2.5"/><circle cx="210" cy="105" r="2.5"/><circle cx="225" cy="105" r="2.5"/><circle cx="240" cy="105" r="2.5"/><circle cx="255" cy="105" r="2.5"/><circle cx="270" cy="105" r="2.5"/><circle cx="285" cy="105" r="2.5"/><circle cx="300" cy="105" r="2.5"/><circle cx="465" cy="105" r="2.5"/><circle cx="480" cy="105" r="2.5"/><circle cx="495" cy="105" r="2.5"/><circle cx="510" cy="105" r="2.5"/><circle cx="525" cy="105" r="2.5"/><circle cx="540" cy="105" r="2.5"/><circle cx="555" cy="105" r="2.5"/><circle cx="585" cy="105" r="2.5"/><circle cx="600" cy="105" r="2.5"/><circle cx="615" cy="105" r="2.5"/><circle cx="630" cy="105" r="2.5"/><circle cx="645" cy="105" r="2.5"/><circle cx="660" cy="105" r="2.5"/><circle cx="675" cy="105" r="2.5"/><circle cx="690" cy="105" r="2.5"/><circle cx="705" cy="105" r="2.5"/><circle cx="720" cy="105" r="2.5"/><circle cx="735" cy="105" r="2.5"/><circle cx="750" cy="105" r="2.5"/><circle cx="765" cy="105" r="2.5"/><circle cx="780" cy="105" r="2.5"/><circle cx="795" cy="105" r="2.5"/><circle cx="810" cy="105" r="2.5"/><circle cx="825" cy="105" r="2.5"/><circle cx="840" cy="105" r="2.5"/><circle cx="120" cy="120" r="2.5"/><circle cx="135" cy="120" r="2.5"/><circle cx="150" cy="120" r="2.5"/><circle cx="165" cy="120" r="2.5"/><circle cx="180" cy="120" r="2.5"/><circle cx="195" cy="120" r="2.5"/><circle cx="210" cy="120" r="2.5"/><circle cx="225" cy="120" r="2.5"/><circle cx="240" cy="120" r="2.5"/><circle cx="255" cy="120" r="2.5"/><circle cx="270" cy="120" r="2.5"/><circle cx="285" cy="120" r="2.5"/><circle cx="300" cy="120" r="2.5"/><circle cx="315" cy="120" r="2.5"/><circle cx="465" cy="120" r="2.5"/><circle cx="480" cy="120" r="2.5"/><circle cx="495" cy="120" r="2.5"/><circle cx="510" cy="120" r="2.5"/><circle cx="525" cy="120" r="2.5"/><circle cx="540" cy="120" r="2.5"/><circle cx="555" cy="120" r="2.5"/><circle cx="585" cy="120" r="2.5"/><circle cx="600" cy="120" r="2.5"/><circle cx="615" cy="120" r="2.5"/><circle cx="630" cy="120" r="2.5"/><circle cx="645" cy="120" r="2.5"/><circle cx="660" cy="120" r="2.5"/><circle cx="675" cy="120" r="2.5"/><circle cx="690" cy="120" r="2.5"/><circle cx="705" cy="120" r="2.5"/><circle cx="720" cy="120" r="2.5"/><circle cx="735" cy="120" r="2.5"/><circle cx="750" cy="120" r="2.5"/><circle cx="765" cy="120" r="2.5"/><circle cx="780" cy="120" r="2.5"/><circle cx="795" cy="120" r="2.5"/><circle cx="810" cy="120" r="2.5"/><circle cx="825" cy="120" r="2.5"/><circle cx="840" cy="120" r="2.5"/><circle cx="855" cy="120" r="2.5"/><circle cx="120" cy="135" r="2.5"/><circle cx="135" cy="135" r="2.5"/><circle cx="150" cy="135" r="2.5"/><circle cx="165" cy="135" r="2.5"/><circle cx="180" cy="135" r="2.5"/><circle cx="195" cy="135" r="2.5"/><circle cx="210" cy="135" r="2.5"/><circle cx="225" cy="135" r="2.5"/><circle cx="240" cy="135" r="2.5"/><circle cx="255" cy="135" r="2.5"/><circle cx="270" cy="135" r="2.5"/><circle cx="285" cy="135" r="2.5"/><circle cx="300" cy="135" r="2.5"/><circle cx="315" cy="135" r="2.5"/><circle cx="465" cy="135" r="2.5"/><circle cx="480" cy="135" r="2.5"/><circle cx="495" cy="135" r="2.5"/><circle cx="510" cy="135" r="2.5"/><circle cx="525" cy="135" r="2.5"/><circle cx="540" cy="135" r="2.5"/><circle cx="555" cy="135" r="2.5"/><circle cx="585" cy="135" r="2.5"/><circle cx="600" cy="135" r="2.5"/><circle cx="615" cy="135" r="2.5"/><circle cx="630" cy="135" r="2.5"/><circle cx="645" cy="135" r="2.5"/><circle cx="660" cy="135" r="2.5"/><circle cx="675" cy="135" r="2.5"/><circle cx="690" cy="135" r="2.5"/><circle cx="705" cy="135" r="2.5"/><circle cx="720" cy="135" r="2.5"/><circle cx="735" cy="135" r="2.5"/><circle cx="750" cy="135" r="2.5"/><circle cx="765" cy="135" r="2.5"/><circle cx="780" cy="135" r="2.5"/><circle cx="795" cy="135" r="2.5"/><circle cx="810" cy="135" r="2.5"/><circle cx="825" cy="135" r="2.5"/><circle cx="840" cy="135" r="2.5"/><circle cx="855" cy="135" r="2.5"/><circle cx="135" cy="150" r="2.5"/><circle cx="150" cy="150" r="2.5"/><circle cx="165" cy="150" r="2.5"/><circle cx="180" cy="150" r="2.5"/><circle cx="195" cy="150" r="2.5"/><circle cx="210" cy="150" r="2.5"/><circle cx="225" cy="150" r="2.5"/><circle cx="240" cy="150" r="2.5"/><circle cx="255" cy="150" r="2.5"/><circle cx="270" cy="150" r="2.5"/><circle cx="285" cy="150" r="2.5"/><circle cx="300" cy="150" r="2.5"/><circle cx="315" cy="150" r="2.5"/><circle cx="480" cy="150" r="2.5"/><circle cx="495" cy="150" r="2.5"/><circle cx="510" cy="150" r="2.5"/><circle cx="525" cy="150" r="2.5"/><circle cx="540" cy="150" r="2.5"/><circle cx="555" cy="150" r="2.5"/><circle cx="585" cy="150" r="2.5"/><circle cx="600" cy="150" r="2.5"/><circle cx="615" cy="150" r="2.5"/><circle cx="630" cy="150" r="2.5"/><circle cx="645" cy="150" r="2.5"/><circle cx="660" cy="150" r="2.5"/><circle cx="675" cy="150" r="2.5"/><circle cx="690" cy="150" r="2.5"/><circle cx="705" cy="150" r="2.5"/><circle cx="720" cy="150" r="2.5"/><circle cx="735" cy="150" r="2.5"/><circle cx="750" cy="150" r="2.5"/><circle cx="765" cy="150" r="2.5"/><circle cx="780" cy="150" r="2.5"/><circle cx="795" cy="150" r="2.5"/><circle cx="810" cy="150" r="2.5"/><circle cx="825" cy="150" r="2.5"/><circle cx="840" cy="150" r="2.5"/><circle cx="855" cy="150" r="2.5"/><circle cx="135" cy="165" r="2.5"/><circle cx="150" cy="165" r="2.5"/><circle cx="165" cy="165" r="2.5"/><circle cx="180" cy="165" r="2.5"/><circle cx="195" cy="165" r="2.5"/><circle cx="210" cy="165" r="2.5"/><circle cx="225" cy="165" r="2.5"/><circle cx="240" cy="165" r="2.5"/><circle cx="255" cy="165" r="2.5"/><circle cx="270" cy="165" r="2.5"/><circle cx="285" cy="165" r="2.5"/><circle cx="300" cy="165" r="2.5"/><circle cx="315" cy="165" r="2.5"/><circle cx="480" cy="165" r="2.5"/><circle cx="495" cy="165" r="2.5"/><circle cx="510" cy="165" r="2.5"/><circle cx="525" cy="165" r="2.5"/><circle cx="540" cy="165" r="2.5"/><circle cx="600" cy="165" r="2.5"/><circle cx="615" cy="165" r="2.5"/><circle cx="630" cy="165" r="2.5"/><circle cx="645" cy="165" r="2.5"/><circle cx="660" cy="165" r="2.5"/><circle cx="675" cy="165" r="2.5"/><circle cx="690" cy="165" r="2.5"/><circle cx="705" cy="165" r="2.5"/><circle cx="720" cy="165" r="2.5"/><circle cx="735" cy="165" r="2.5"/><circle cx="750" cy="165" r="2.5"/><circle cx="765" cy="165" r="2.5"/><circle cx="780" cy="165" r="2.5"/><circle cx="795" cy="165" r="2.5"/><circle cx="810" cy="165" r="2.5"/><circle cx="825" cy="165" r="2.5"/><circle cx="840" cy="165" r="2.5"/><circle cx="855" cy="165" r="2.5"/><circle cx="870" cy="165" r="2.5"/><circle cx="150" cy="180" r="2.5"/><circle cx="165" cy="180" r="2.5"/><circle cx="180" cy="180" r="2.5"/><circle cx="195" cy="180" r="2.5"/><circle cx="210" cy="180" r="2.5"/><circle cx="225" cy="180" r="2.5"/><circle cx="240" cy="180" r="2.5"/><circle cx="255" cy="180" r="2.5"/><circle cx="270" cy="180" r="2.5"/><circle cx="285" cy="180" r="2.5"/><circle cx="300" cy="180" r="2.5"/><circle cx="510" cy="180" r="2.5"/><circle cx="525" cy="180" r="2.5"/><circle cx="615" cy="180" r="2.5"/><circle cx="630" cy="180" r="2.5"/><circle cx="645" cy="180" r="2.5"/><circle cx="660" cy="180" r="2.5"/><circle cx="675" cy="180" r="2.5"/><circle cx="690" cy="180" r="2.5"/><circle cx="705" cy="180" r="2.5"/><circle cx="720" cy="180" r="2.5"/><circle cx="735" cy="180" r="2.5"/><circle cx="750" cy="180" r="2.5"/><circle cx="765" cy="180" r="2.5"/><circle cx="780" cy="180" r="2.5"/><circle cx="795" cy="180" r="2.5"/><circle cx="810" cy="180" r="2.5"/><circle cx="825" cy="180" r="2.5"/><circle cx="840" cy="180" r="2.5"/><circle cx="855" cy="180" r="2.5"/><circle cx="870" cy="180" r="2.5"/><circle cx="165" cy="195" r="2.5"/><circle cx="180" cy="195" r="2.5"/><circle cx="195" cy="195" r="2.5"/><circle cx="210" cy="195" r="2.5"/><circle cx="225" cy="195" r="2.5"/><circle cx="240" cy="195" r="2.5"/><circle cx="255" cy="195" r="2.5"/><circle cx="270" cy="195" r="2.5"/><circle cx="285" cy="195" r="2.5"/><circle cx="300" cy="195" r="2.5"/><circle cx="630" cy="195" r="2.5"/><circle cx="645" cy="195" r="2.5"/><circle cx="660" cy="195" r="2.5"/><circle cx="675" cy="195" r="2.5"/><circle cx="690" cy="195" r="2.5"/><circle cx="705" cy="195" r="2.5"/><circle cx="720" cy="195" r="2.5"/><circle cx="735" cy="195" r="2.5"/><circle cx="750" cy="195" r="2.5"/><circle cx="765" cy="195" r="2.5"/><circle cx="780" cy="195" r="2.5"/><circle cx="795" cy="195" r="2.5"/><circle cx="810" cy="195" r="2.5"/><circle cx="825" cy="195" r="2.5"/><circle cx="165" cy="210" r="2.5"/><circle cx="180" cy="210" r="2.5"/><circle cx="195" cy="210" r="2.5"/><circle cx="210" cy="210" r="2.5"/><circle cx="225" cy="210" r="2.5"/><circle cx="240" cy="210" r="2.5"/><circle cx="255" cy="210" r="2.5"/><circle cx="270" cy="210" r="2.5"/><circle cx="285" cy="210" r="2.5"/><circle cx="480" cy="210" r="2.5"/><circle cx="495" cy="210" r="2.5"/><circle cx="510" cy="210" r="2.5"/><circle cx="525" cy="210" r="2.5"/><circle cx="540" cy="210" r="2.5"/><circle cx="555" cy="210" r="2.5"/><circle cx="570" cy="210" r="2.5"/><circle cx="645" cy="210" r="2.5"/><circle cx="660" cy="210" r="2.5"/><circle cx="675" cy="210" r="2.5"/><circle cx="690" cy="210" r="2.5"/><circle cx="705" cy="210" r="2.5"/><circle cx="720" cy="210" r="2.5"/><circle cx="735" cy="210" r="2.5"/><circle cx="750" cy="210" r="2.5"/><circle cx="765" cy="210" r="2.5"/><circle cx="780" cy="210" r="2.5"/><circle cx="795" cy="210" r="2.5"/><circle cx="195" cy="225" r="2.5"/><circle cx="210" cy="225" r="2.5"/><circle cx="225" cy="225" r="2.5"/><circle cx="240" cy="225" r="2.5"/><circle cx="255" cy="225" r="2.5"/><circle cx="270" cy="225" r="2.5"/><circle cx="480" cy="225" r="2.5"/><circle cx="495" cy="225" r="2.5"/><circle cx="510" cy="225" r="2.5"/><circle cx="525" cy="225" r="2.5"/><circle cx="540" cy="225" r="2.5"/><circle cx="555" cy="225" r="2.5"/><circle cx="570" cy="225" r="2.5"/><circle cx="225" cy="240" r="2.5"/><circle cx="240" cy="240" r="2.5"/><circle cx="480" cy="240" r="2.5"/><circle cx="495" cy="240" r="2.5"/><circle cx="510" cy="240" r="2.5"/><circle cx="525" cy="240" r="2.5"/><circle cx="540" cy="240" r="2.5"/><circle cx="555" cy="240" r="2.5"/><circle cx="570" cy="240" r="2.5"/><circle cx="585" cy="240" r="2.5"/><circle cx="765" cy="240" r="2.5"/><circle cx="780" cy="240" r="2.5"/><circle cx="795" cy="240" r="2.5"/><circle cx="810" cy="240" r="2.5"/><circle cx="825" cy="240" r="2.5"/><circle cx="285" cy="255" r="2.5"/><circle cx="300" cy="255" r="2.5"/><circle cx="480" cy="255" r="2.5"/><circle cx="495" cy="255" r="2.5"/><circle cx="510" cy="255" r="2.5"/><circle cx="525" cy="255" r="2.5"/><circle cx="540" cy="255" r="2.5"/><circle cx="555" cy="255" r="2.5"/><circle cx="570" cy="255" r="2.5"/><circle cx="585" cy="255" r="2.5"/><circle cx="765" cy="255" r="2.5"/><circle cx="780" cy="255" r="2.5"/><circle cx="795" cy="255" r="2.5"/><circle cx="810" cy="255" r="2.5"/><circle cx="825" cy="255" r="2.5"/><circle cx="255" cy="270" r="2.5"/><circle cx="270" cy="270" r="2.5"/><circle cx="285" cy="270" r="2.5"/><circle cx="300" cy="270" r="2.5"/><circle cx="480" cy="270" r="2.5"/><circle cx="495" cy="270" r="2.5"/><circle cx="510" cy="270" r="2.5"/><circle cx="525" cy="270" r="2.5"/><circle cx="540" cy="270" r="2.5"/><circle cx="555" cy="270" r="2.5"/><circle cx="570" cy="270" r="2.5"/><circle cx="585" cy="270" r="2.5"/><circle cx="765" cy="270" r="2.5"/><circle cx="780" cy="270" r="2.5"/><circle cx="795" cy="270" r="2.5"/><circle cx="810" cy="270" r="2.5"/><circle cx="825" cy="270" r="2.5"/><circle cx="255" cy="285" r="2.5"/><circle cx="270" cy="285" r="2.5"/><circle cx="285" cy="285" r="2.5"/><circle cx="300" cy="285" r="2.5"/><circle cx="495" cy="285" r="2.5"/><circle cx="510" cy="285" r="2.5"/><circle cx="525" cy="285" r="2.5"/><circle cx="540" cy="285" r="2.5"/><circle cx="555" cy="285" r="2.5"/><circle cx="570" cy="285" r="2.5"/><circle cx="585" cy="285" r="2.5"/><circle cx="780" cy="285" r="2.5"/><circle cx="795" cy="285" r="2.5"/><circle cx="810" cy="285" r="2.5"/><circle cx="825" cy="285" r="2.5"/><circle cx="255" cy="300" r="2.5"/><circle cx="270" cy="300" r="2.5"/><circle cx="285" cy="300" r="2.5"/><circle cx="300" cy="300" r="2.5"/><circle cx="315" cy="300" r="2.5"/><circle cx="495" cy="300" r="2.5"/><circle cx="510" cy="300" r="2.5"/><circle cx="525" cy="300" r="2.5"/><circle cx="540" cy="300" r="2.5"/><circle cx="555" cy="300" r="2.5"/><circle cx="570" cy="300" r="2.5"/><circle cx="585" cy="300" r="2.5"/><circle cx="255" cy="315" r="2.5"/><circle cx="270" cy="315" r="2.5"/><circle cx="285" cy="315" r="2.5"/><circle cx="300" cy="315" r="2.5"/><circle cx="315" cy="315" r="2.5"/><circle cx="495" cy="315" r="2.5"/><circle cx="510" cy="315" r="2.5"/><circle cx="525" cy="315" r="2.5"/><circle cx="540" cy="315" r="2.5"/><circle cx="555" cy="315" r="2.5"/><circle cx="570" cy="315" r="2.5"/><circle cx="585" cy="315" r="2.5"/><circle cx="255" cy="330" r="2.5"/><circle cx="270" cy="330" r="2.5"/><circle cx="285" cy="330" r="2.5"/><circle cx="300" cy="330" r="2.5"/><circle cx="315" cy="330" r="2.5"/><circle cx="510" cy="330" r="2.5"/><circle cx="525" cy="330" r="2.5"/><circle cx="540" cy="330" r="2.5"/><circle cx="555" cy="330" r="2.5"/><circle cx="570" cy="330" r="2.5"/><circle cx="585" cy="330" r="2.5"/><circle cx="270" cy="345" r="2.5"/><circle cx="285" cy="345" r="2.5"/><circle cx="300" cy="345" r="2.5"/><circle cx="315" cy="345" r="2.5"/><circle cx="510" cy="345" r="2.5"/><circle cx="525" cy="345" r="2.5"/><circle cx="540" cy="345" r="2.5"/><circle cx="555" cy="345" r="2.5"/><circle cx="570" cy="345" r="2.5"/><circle cx="270" cy="360" r="2.5"/><circle cx="285" cy="360" r="2.5"/><circle cx="300" cy="360" r="2.5"/><circle cx="315" cy="360" r="2.5"/><circle cx="510" cy="360" r="2.5"/><circle cx="525" cy="360" r="2.5"/><circle cx="540" cy="360" r="2.5"/><circle cx="555" cy="360" r="2.5"/><circle cx="570" cy="360" r="2.5"/><circle cx="765" cy="360" r="2.5"/><circle cx="780" cy="360" r="2.5"/><circle cx="795" cy="360" r="2.5"/><circle cx="810" cy="360" r="2.5"/><circle cx="825" cy="360" r="2.5"/><circle cx="840" cy="360" r="2.5"/><circle cx="855" cy="360" r="2.5"/><circle cx="270" cy="375" r="2.5"/><circle cx="285" cy="375" r="2.5"/><circle cx="300" cy="375" r="2.5"/><circle cx="315" cy="375" r="2.5"/><circle cx="540" cy="375" r="2.5"/><circle cx="555" cy="375" r="2.5"/><circle cx="765" cy="375" r="2.5"/><circle cx="780" cy="375" r="2.5"/><circle cx="795" cy="375" r="2.5"/><circle cx="810" cy="375" r="2.5"/><circle cx="825" cy="375" r="2.5"/><circle cx="840" cy="375" r="2.5"/><circle cx="855" cy="375" r="2.5"/><circle cx="270" cy="390" r="2.5"/><circle cx="285" cy="390" r="2.5"/><circle cx="300" cy="390" r="2.5"/><circle cx="315" cy="390" r="2.5"/><circle cx="555" cy="390" r="2.5"/><circle cx="765" cy="390" r="2.5"/><circle cx="780" cy="390" r="2.5"/><circle cx="795" cy="390" r="2.5"/><circle cx="810" cy="390" r="2.5"/><circle cx="825" cy="390" r="2.5"/><circle cx="840" cy="390" r="2.5"/><circle cx="855" cy="390" r="2.5"/><circle cx="270" cy="405" r="2.5"/><circle cx="285" cy="405" r="2.5"/><circle cx="300" cy="405" r="2.5"/><circle cx="315" cy="405" r="2.5"/><circle cx="765" cy="405" r="2.5"/><circle cx="780" cy="405" r="2.5"/><circle cx="795" cy="405" r="2.5"/><circle cx="810" cy="405" r="2.5"/><circle cx="825" cy="405" r="2.5"/><circle cx="840" cy="405" r="2.5"/><circle cx="855" cy="405" r="2.5"/><circle cx="870" cy="405" r="2.5"/><circle cx="270" cy="420" r="2.5"/><circle cx="285" cy="420" r="2.5"/><circle cx="300" cy="420" r="2.5"/><circle cx="315" cy="420" r="2.5"/><circle cx="780" cy="420" r="2.5"/><circle cx="795" cy="420" r="2.5"/><circle cx="810" cy="420" r="2.5"/><circle cx="825" cy="420" r="2.5"/><circle cx="840" cy="420" r="2.5"/><circle cx="855" cy="420" r="2.5"/><circle cx="870" cy="420" r="2.5"/><circle cx="270" cy="435" r="2.5"/><circle cx="285" cy="435" r="2.5"/><circle cx="300" cy="435" r="2.5"/><circle cx="795" cy="435" r="2.5"/><circle cx="810" cy="435" r="2.5"/><circle cx="825" cy="435" r="2.5"/><circle cx="285" cy="450" r="2.5"/><circle cx="300" cy="450" r="2.5"/></g></svg>